HIERARCHY
ROOT hip
{
	OFFSET 0.000000 0.000000 0.000000 
	CHANNELS 6 Xposition Yposition Zposition Xrotation Zrotation Yrotation
	JOINT abdomen
	{
		OFFSET 0.000000 3.402643 0.000000 
		CHANNELS 3 Xrotation Zrotation Yrotation
		JOINT chest
		{
			OFFSET 0.000000 8.438565 -0.680529 
			CHANNELS 3 Xrotation Zrotation Yrotation
			JOINT neck
			{
				OFFSET 0.000000 10.207942 -0.272212 
				CHANNELS 3 Xrotation Zrotation Yrotation
				JOINT head
				{
					OFFSET 0.000000 3.130431 0.000000 
					CHANNELS 3 Xrotation Zrotation Yrotation
					End Site
					{
						OFFSET 0.000000 3.130435 0.000000 
					}
				}
			}
			JOINT lCollar
			{
				OFFSET 3.470700 6.669187 -0.816635 
				CHANNELS 3 Yrotation Zrotation Xrotation
				JOINT lShldr
				{
					OFFSET 3.198488 0.000000 0.000000 
					CHANNELS 3 Zrotation Yrotation Xrotation
					JOINT lForeArm
					{
						OFFSET 10.139888 0.000000 0.000000 
						CHANNELS 3 Yrotation Zrotation Xrotation
						JOINT lHand
						{
							OFFSET 8.370511 0.000000 0.000000 
							CHANNELS 3 Zrotation Yrotation Xrotation
							End Site
							{
								OFFSET 4.083176 0.000000 0.000000 
							}
						}
					}
				}
			}
			JOINT rCollar
			{
				OFFSET -3.470700 6.669187 -0.816635 
				CHANNELS 3 Yrotation Zrotation Xrotation
				JOINT rShldr
				{
					OFFSET -3.198488 0.000000 0.000000 
					CHANNELS 3 Zrotation Yrotation Xrotation
					JOINT rForeArm
					{
						OFFSET -10.139888 0.000000 0.000000 
						CHANNELS 3 Yrotation Zrotation Xrotation
						JOINT rHand
						{
							OFFSET -8.370511 0.000000 0.000000 
							CHANNELS 3 Zrotation Yrotation Xrotation
							End Site
							{
								OFFSET -4.083176 0.000000 0.000000 
							}
						}
					}
				}
			}
		}
	}
	JOINT lThigh
	{
		OFFSET 5.308129 -1.633274 1.361059 
		CHANNELS 3 Xrotation Zrotation Yrotation
		JOINT lShin
		{
			OFFSET -2.041588 -20.007561 0.000000 
			CHANNELS 3 Xrotation Zrotation Yrotation
			JOINT lFoot
			{
				OFFSET 0.000000 -19.190928 -1.224953 
				CHANNELS 3 Xrotation Yrotation Zrotation
				End Site
				{
					OFFSET 0.000000 -2.449906 4.627600 
				}
			}
		}
	}
	JOINT rThigh
	{
		OFFSET -5.308129 -1.633274 1.361059 
		CHANNELS 3 Xrotation Zrotation Yrotation
		JOINT rShin
		{
			OFFSET 2.041588 -20.007561 0.000000 
			CHANNELS 3 Xrotation Zrotation Yrotation
			JOINT rFoot
			{
				OFFSET 0.000000 -19.190928 -1.224953 
				CHANNELS 3 Xrotation Yrotation Zrotation
				End Site
				{
					OFFSET 0.000000 -2.449906 4.627600 
				}
			}
		}
	}
}
MOTION
Frames: 6
Frame Time: 0.033333
7.178163 47.263054 7.923226 18.811869 -5.371423 3.403028 0.000000 0.000000 0.000000 -8.140222 -8.077144 4.822585 9.662382 -3.027312 -0.264335 -26.580578 2.968474 0.782730 -21.275469 29.999577 24.987453 -82.201706 8.061309 -12.461902 -62.231003 6.662798 19.617411 -1.930853 -15.699862 -63.305328 2.330671 -30.000000 25.000000 76.526939 -12.871606 87.367180 26.251150 -59.949436 35.110943 26.315405 13.563945 -78.590996 -17.380882 15.347798 21.338797 28.889835 0.954972 -0.881708 19.424644 -7.522560 -40.195656 -28.421476 -12.858483 -1.676933 41.486267 4.706223 3.797401 18.342562 6.777936 32.508949 
7.040657 47.245285 7.920921 21.002684 -5.868232 3.465123 0.000000 0.000000 0.000000 -8.085984 -7.804000 4.879277 9.902231 -2.460919 -0.224822 -26.570723 2.206931 0.547598 -23.294935 29.994686 24.993256 -83.383141 9.523749 -12.043034 -63.972679 6.479082 22.378885 -1.817989 -15.251797 -63.361256 1.811237 -30.000000 24.808828 76.871590 -14.343667 88.178864 23.247557 -61.395493 31.404179 27.119429 13.757680 -78.481506 -19.597149 15.767215 21.200365 28.594622 1.047929 -0.831030 19.189190 -8.090781 -39.266541 -29.683985 -12.283980 -1.417246 40.129482 5.018608 3.726264 17.670132 5.359035 33.593132 
6.903257 47.227448 7.918791 23.195198 -6.355355 3.507035 0.000000 0.000000 0.000000 -8.020997 -7.540733 4.925065 10.133091 -1.894521 -0.185768 -26.564381 1.445291 0.312647 -25.313099 29.992966 24.992990 -84.563843 10.994246 -11.642458 -65.699028 6.215662 25.138136 -1.701776 -14.816505 -63.415710 1.285619 -30.000000 24.603289 77.187706 -15.822625 88.981850 19.890207 -62.742008 27.336367 27.925184 13.930652 -78.378380 -21.824728 16.198931 21.061674 28.288359 1.135550 -0.811137 18.995222 -8.637464 -38.317673 -30.924419 -11.698266 -1.173788 38.795361 5.331638 3.678995 17.034798 3.916017 34.689999 
6.839898 47.155933 8.039673 24.690050 -6.275893 3.722729 0.000000 0.000000 0.000000 -7.516716 -7.755236 4.887632 10.062643 -1.484370 -0.156451 -26.608452 0.888667 0.185676 -26.633240 29.995653 24.996544 -85.391701 12.223644 -11.345853 -66.524940 5.715733 26.087276 -2.181593 -14.952565 -63.171421 1.105374 -30.000000 24.473082 77.649101 -16.837828 89.696808 13.619893 -62.118023 15.982950 28.359547 11.822845 -78.729652 -22.966965 15.856745 20.764910 27.974482 1.179820 -0.781883 18.480501 -8.675164 -38.718868 -31.267393 -11.864699 -1.213903 37.487038 5.302246 3.528182 16.368513 3.767121 35.949402 
6.776610 47.084427 8.160660 26.185497 -6.196380 3.938427 0.000000 0.000000 0.000000 -7.018357 -7.960257 4.830904 9.992615 -1.074216 -0.127114 -26.659805 0.341797 0.058651 -27.933075 29.993362 24.986866 -86.227371 13.452781 -11.068247 -67.336243 5.194131 27.028542 -2.662413 -15.085347 -62.927891 0.914772 -30.000000 24.324566 78.093819 -17.869604 90.408073 7.887898 -60.926025 5.153105 28.786829 9.723248 -79.114006 -24.117754 15.503388 20.436993 27.671764 1.224150 -0.714293 17.965958 -8.729660 -39.134644 -31.607496 -12.039890 -1.250464 36.185612 5.292043 3.385728 15.700541 3.618156 37.213821 
6.763577 47.013500 8.355608 27.614794 -6.090261 3.790705 0.000000 0.000000 0.000000 -6.808186 -7.852878 4.859927 10.256866 -1.240231 -0.136898 -26.765039 0.595698 0.244229 -28.548183 29.998720 24.989353 -86.502502 14.742096 -11.061557 -67.307686 5.309511 27.126312 -3.155923 -15.318930 -62.669888 1.589041 -30.000000 24.659922 78.525696 -18.000248 90.689583 3.140552 -58.643951 -5.823521 28.158590 8.140006 -79.411034 -25.056402 15.299900 20.237679 27.428646 1.169601 -0.748782 17.694895 -8.317606 -40.538296 -31.962280 -12.304641 -1.334305 35.022160 5.194254 3.260104 15.681517 4.854326 39.187878 
